# xmcd
#
# Track frame offsets:
#	150
#	13429
#	30492
#	44154
#	63013
#	80195
#	96484
#	116006
#	137192
#	152624
#	164475
#	180702
#	198096
#	209105
#	226636
#	240735
#	256070
#	277445
#
# Disc length: 3865 seconds
#
# Revision: 0
# Processed by: cddbd v1.5.2PL0 Copyright (c) Steve Scherf et al.
# Submitted via: FairStars CD Ripper 1.90
#
DISCID=0c0f1712
DTITLE=Beverley Sheehan and Friends - Spredin' Rhythm Around
DYEAR=2002
DGENRE=Jazz
TTITLE0=He Plays Trombone Chicago Style
TTITLE1=Hummin' to Myself
TTITLE2=I Aint Got Nothin' But the Blues
TTITLE3=I'll Close My Eyes
TTITLE4=Jazz Me Blues
TTITLE5=Lulu's Back in Town
TTITLE6=Streets of London
TTITLE7=Miss Celie's Blues (Sister)
TTITLE8=Spreadin' Rhythm Around
TTITLE9=Peel Me a Grape
TTITLE10=Miss Jenny's Ball
TTITLE11=La Vie En Rose
TTITLE12=What's a lady Like Me (Doin'in a Joint Like This?)
TTITLE13=WhenYou and I Were Young Maggie Blues
TTITLE14=Rose of Washington Square
TTITLE15=I Double dare You
TTITLE16=Georgia on My Mind
TTITLE17=With a Wink and a Smile
EXTD=
EXTT0=from the film "Road to Rio"
EXTT1=
EXTT2=
EXTT3=
EXTT4=
EXTT5=
EXTT6=
EXTT7=
EXTT8=
EXTT9=
EXTT10=
EXTT11=
EXTT12=
EXTT13=
EXTT14=
EXTT15=
EXTT16=
EXTT17=
PLAYORDER=
